<mxfile host="Electron" agent="Mozilla/5.0 (Windows NT 10.0; Win64; x64) AppleWebKit/537.36 (KHTML, like Gecko) draw.io/24.7.17 Chrome/128.0.6613.36 Electron/32.0.1 Safari/537.36" version="24.7.17">
  <diagram name="第 1 页" id="GqaYeDAcBa39iaGWTPDn">
    <mxGraphModel dx="793" dy="1197" grid="1" gridSize="10" guides="1" tooltips="1" connect="1" arrows="1" fold="1" page="1" pageScale="1" pageWidth="827" pageHeight="1169" math="0" shadow="0">
      <root>
        <mxCell id="0" />
        <mxCell id="1" parent="0" />
        <mxCell id="_3a8YiENMzKRKPIrLzeu-1" value="" style="rounded=0;whiteSpace=wrap;html=1;" parent="1" vertex="1">
          <mxGeometry x="360" y="440" width="520" height="2360" as="geometry" />
        </mxCell>
        <mxCell id="_3a8YiENMzKRKPIrLzeu-9" value="" style="endArrow=classic;html=1;rounded=0;" parent="1" edge="1">
          <mxGeometry width="50" height="50" relative="1" as="geometry">
            <mxPoint x="280" y="480" as="sourcePoint" />
            <mxPoint x="360" y="480" as="targetPoint" />
          </mxGeometry>
        </mxCell>
        <mxCell id="_3a8YiENMzKRKPIrLzeu-17" value="&lt;span style=&quot;font-size: 18px;&quot;&gt;amo_wait&lt;/span&gt;" style="text;html=1;align=left;verticalAlign=middle;whiteSpace=wrap;rounded=0;" parent="1" vertex="1">
          <mxGeometry x="360" y="460" width="200" height="40" as="geometry" />
        </mxCell>
        <mxCell id="_3a8YiENMzKRKPIrLzeu-26" value="" style="endArrow=classic;html=1;rounded=0;" parent="1" edge="1">
          <mxGeometry width="50" height="50" relative="1" as="geometry">
            <mxPoint x="880" y="479.5" as="sourcePoint" />
            <mxPoint x="960" y="479.5" as="targetPoint" />
          </mxGeometry>
        </mxCell>
        <mxCell id="_3a8YiENMzKRKPIrLzeu-27" value="" style="endArrow=classic;html=1;rounded=0;" parent="1" edge="1">
          <mxGeometry width="50" height="50" relative="1" as="geometry">
            <mxPoint x="280" y="520" as="sourcePoint" />
            <mxPoint x="360" y="520" as="targetPoint" />
          </mxGeometry>
        </mxCell>
        <mxCell id="_3a8YiENMzKRKPIrLzeu-31" value="" style="endArrow=classic;html=1;rounded=0;" parent="1" edge="1">
          <mxGeometry width="50" height="50" relative="1" as="geometry">
            <mxPoint x="280" y="560" as="sourcePoint" />
            <mxPoint x="360" y="560" as="targetPoint" />
          </mxGeometry>
        </mxCell>
        <mxCell id="_3a8YiENMzKRKPIrLzeu-35" value="" style="endArrow=classic;html=1;rounded=0;" parent="1" edge="1">
          <mxGeometry width="50" height="50" relative="1" as="geometry">
            <mxPoint x="280" y="600" as="sourcePoint" />
            <mxPoint x="360" y="600" as="targetPoint" />
          </mxGeometry>
        </mxCell>
        <mxCell id="_3a8YiENMzKRKPIrLzeu-39" value="" style="endArrow=classic;html=1;rounded=0;" parent="1" edge="1">
          <mxGeometry width="50" height="50" relative="1" as="geometry">
            <mxPoint x="280" y="640" as="sourcePoint" />
            <mxPoint x="360" y="640" as="targetPoint" />
          </mxGeometry>
        </mxCell>
        <mxCell id="_3a8YiENMzKRKPIrLzeu-43" value="" style="endArrow=classic;html=1;rounded=0;" parent="1" edge="1">
          <mxGeometry width="50" height="50" relative="1" as="geometry">
            <mxPoint x="280" y="680" as="sourcePoint" />
            <mxPoint x="360" y="680" as="targetPoint" />
          </mxGeometry>
        </mxCell>
        <mxCell id="_3a8YiENMzKRKPIrLzeu-47" value="" style="endArrow=classic;html=1;rounded=0;" parent="1" edge="1">
          <mxGeometry width="50" height="50" relative="1" as="geometry">
            <mxPoint x="280" y="720" as="sourcePoint" />
            <mxPoint x="360" y="720" as="targetPoint" />
          </mxGeometry>
        </mxCell>
        <mxCell id="_3a8YiENMzKRKPIrLzeu-51" value="" style="endArrow=classic;html=1;rounded=0;" parent="1" edge="1">
          <mxGeometry width="50" height="50" relative="1" as="geometry">
            <mxPoint x="280" y="760" as="sourcePoint" />
            <mxPoint x="360" y="760" as="targetPoint" />
          </mxGeometry>
        </mxCell>
        <mxCell id="_3a8YiENMzKRKPIrLzeu-55" value="" style="endArrow=classic;html=1;rounded=0;" parent="1" edge="1">
          <mxGeometry width="50" height="50" relative="1" as="geometry">
            <mxPoint x="280" y="800" as="sourcePoint" />
            <mxPoint x="360" y="800" as="targetPoint" />
          </mxGeometry>
        </mxCell>
        <mxCell id="_3a8YiENMzKRKPIrLzeu-59" value="" style="endArrow=classic;html=1;rounded=0;" parent="1" edge="1">
          <mxGeometry width="50" height="50" relative="1" as="geometry">
            <mxPoint x="280" y="840" as="sourcePoint" />
            <mxPoint x="360" y="840" as="targetPoint" />
          </mxGeometry>
        </mxCell>
        <mxCell id="_3a8YiENMzKRKPIrLzeu-63" value="" style="endArrow=classic;html=1;rounded=0;" parent="1" edge="1">
          <mxGeometry width="50" height="50" relative="1" as="geometry">
            <mxPoint x="280" y="880" as="sourcePoint" />
            <mxPoint x="360" y="880" as="targetPoint" />
          </mxGeometry>
        </mxCell>
        <mxCell id="_3a8YiENMzKRKPIrLzeu-67" value="" style="endArrow=classic;html=1;rounded=0;" parent="1" edge="1">
          <mxGeometry width="50" height="50" relative="1" as="geometry">
            <mxPoint x="280" y="920" as="sourcePoint" />
            <mxPoint x="360" y="920" as="targetPoint" />
          </mxGeometry>
        </mxCell>
        <mxCell id="_3a8YiENMzKRKPIrLzeu-71" value="" style="endArrow=classic;html=1;rounded=0;" parent="1" edge="1">
          <mxGeometry width="50" height="50" relative="1" as="geometry">
            <mxPoint x="280" y="960" as="sourcePoint" />
            <mxPoint x="360" y="960" as="targetPoint" />
          </mxGeometry>
        </mxCell>
        <mxCell id="_3a8YiENMzKRKPIrLzeu-75" value="" style="endArrow=classic;html=1;rounded=0;" parent="1" edge="1">
          <mxGeometry width="50" height="50" relative="1" as="geometry">
            <mxPoint x="280" y="1000" as="sourcePoint" />
            <mxPoint x="360" y="1000" as="targetPoint" />
          </mxGeometry>
        </mxCell>
        <mxCell id="_3a8YiENMzKRKPIrLzeu-87" value="&lt;span style=&quot;font-size: 18px;&quot;&gt;e203_exu_commit&lt;/span&gt;" style="text;html=1;align=center;verticalAlign=middle;whiteSpace=wrap;rounded=0;" parent="1" vertex="1">
          <mxGeometry x="590" y="440" width="60" height="30" as="geometry" />
        </mxCell>
        <mxCell id="wlH1zYc57PTHNDlGmOBV-1" value="" style="endArrow=classic;html=1;rounded=0;" parent="1" edge="1">
          <mxGeometry width="50" height="50" relative="1" as="geometry">
            <mxPoint x="880" y="519.5" as="sourcePoint" />
            <mxPoint x="960" y="519.5" as="targetPoint" />
          </mxGeometry>
        </mxCell>
        <mxCell id="wlH1zYc57PTHNDlGmOBV-2" value="" style="endArrow=classic;html=1;rounded=0;" parent="1" edge="1">
          <mxGeometry width="50" height="50" relative="1" as="geometry">
            <mxPoint x="880" y="559.5" as="sourcePoint" />
            <mxPoint x="960" y="559.5" as="targetPoint" />
          </mxGeometry>
        </mxCell>
        <mxCell id="wlH1zYc57PTHNDlGmOBV-3" value="" style="endArrow=classic;html=1;rounded=0;" parent="1" edge="1">
          <mxGeometry width="50" height="50" relative="1" as="geometry">
            <mxPoint x="880" y="599.5" as="sourcePoint" />
            <mxPoint x="960" y="599.5" as="targetPoint" />
          </mxGeometry>
        </mxCell>
        <mxCell id="wlH1zYc57PTHNDlGmOBV-4" value="" style="endArrow=classic;html=1;rounded=0;" parent="1" edge="1">
          <mxGeometry width="50" height="50" relative="1" as="geometry">
            <mxPoint x="880" y="640" as="sourcePoint" />
            <mxPoint x="960" y="640" as="targetPoint" />
          </mxGeometry>
        </mxCell>
        <mxCell id="wlH1zYc57PTHNDlGmOBV-5" value="" style="endArrow=classic;html=1;rounded=0;" parent="1" edge="1">
          <mxGeometry width="50" height="50" relative="1" as="geometry">
            <mxPoint x="880" y="680" as="sourcePoint" />
            <mxPoint x="960" y="680" as="targetPoint" />
          </mxGeometry>
        </mxCell>
        <mxCell id="wlH1zYc57PTHNDlGmOBV-6" value="" style="endArrow=classic;html=1;rounded=0;" parent="1" edge="1">
          <mxGeometry width="50" height="50" relative="1" as="geometry">
            <mxPoint x="880" y="720" as="sourcePoint" />
            <mxPoint x="960" y="720" as="targetPoint" />
          </mxGeometry>
        </mxCell>
        <mxCell id="wlH1zYc57PTHNDlGmOBV-7" value="" style="endArrow=classic;html=1;rounded=0;" parent="1" edge="1">
          <mxGeometry width="50" height="50" relative="1" as="geometry">
            <mxPoint x="880" y="760" as="sourcePoint" />
            <mxPoint x="960" y="760" as="targetPoint" />
          </mxGeometry>
        </mxCell>
        <mxCell id="wlH1zYc57PTHNDlGmOBV-8" value="" style="endArrow=classic;html=1;rounded=0;" parent="1" edge="1">
          <mxGeometry width="50" height="50" relative="1" as="geometry">
            <mxPoint x="880" y="800" as="sourcePoint" />
            <mxPoint x="960" y="800" as="targetPoint" />
          </mxGeometry>
        </mxCell>
        <mxCell id="wlH1zYc57PTHNDlGmOBV-9" value="" style="endArrow=classic;html=1;rounded=0;" parent="1" edge="1">
          <mxGeometry width="50" height="50" relative="1" as="geometry">
            <mxPoint x="880" y="840" as="sourcePoint" />
            <mxPoint x="960" y="840" as="targetPoint" />
          </mxGeometry>
        </mxCell>
        <mxCell id="wlH1zYc57PTHNDlGmOBV-10" value="" style="endArrow=classic;html=1;rounded=0;" parent="1" edge="1">
          <mxGeometry width="50" height="50" relative="1" as="geometry">
            <mxPoint x="880" y="880" as="sourcePoint" />
            <mxPoint x="960" y="880" as="targetPoint" />
          </mxGeometry>
        </mxCell>
        <mxCell id="wlH1zYc57PTHNDlGmOBV-11" value="" style="endArrow=classic;html=1;rounded=0;" parent="1" edge="1">
          <mxGeometry width="50" height="50" relative="1" as="geometry">
            <mxPoint x="880" y="920" as="sourcePoint" />
            <mxPoint x="960" y="920" as="targetPoint" />
          </mxGeometry>
        </mxCell>
        <mxCell id="zMWLGIm6i4pCkFBHPuND-2" value="" style="endArrow=classic;html=1;rounded=0;" parent="1" edge="1">
          <mxGeometry width="50" height="50" relative="1" as="geometry">
            <mxPoint x="280" y="1040" as="sourcePoint" />
            <mxPoint x="360" y="1040" as="targetPoint" />
          </mxGeometry>
        </mxCell>
        <mxCell id="zMWLGIm6i4pCkFBHPuND-3" value="" style="endArrow=classic;html=1;rounded=0;" parent="1" edge="1">
          <mxGeometry width="50" height="50" relative="1" as="geometry">
            <mxPoint x="280" y="1080" as="sourcePoint" />
            <mxPoint x="360" y="1080" as="targetPoint" />
          </mxGeometry>
        </mxCell>
        <mxCell id="zMWLGIm6i4pCkFBHPuND-6" value="" style="endArrow=classic;html=1;rounded=0;" parent="1" edge="1">
          <mxGeometry width="50" height="50" relative="1" as="geometry">
            <mxPoint x="280" y="1120" as="sourcePoint" />
            <mxPoint x="360" y="1120" as="targetPoint" />
          </mxGeometry>
        </mxCell>
        <mxCell id="unABgJLcHEa5XkPhuNoP-1" value="&lt;span style=&quot;font-size: 18px;&quot;&gt;commit_mret&lt;/span&gt;" style="text;html=1;align=right;verticalAlign=middle;whiteSpace=wrap;rounded=0;" parent="1" vertex="1">
          <mxGeometry x="680" y="460" width="200" height="40" as="geometry" />
        </mxCell>
        <mxCell id="unABgJLcHEa5XkPhuNoP-2" value="&lt;span style=&quot;font-size: 18px; text-align: right;&quot;&gt;wfi_halt_ifu_ack&lt;/span&gt;" style="text;html=1;align=left;verticalAlign=middle;whiteSpace=wrap;rounded=0;" parent="1" vertex="1">
          <mxGeometry x="360" y="500" width="200" height="40" as="geometry" />
        </mxCell>
        <mxCell id="unABgJLcHEa5XkPhuNoP-3" value="&lt;span style=&quot;font-size: 18px;&quot;&gt;commit_trap&lt;/span&gt;" style="text;html=1;align=right;verticalAlign=middle;whiteSpace=wrap;rounded=0;" parent="1" vertex="1">
          <mxGeometry x="680" y="500" width="200" height="40" as="geometry" />
        </mxCell>
        <mxCell id="unABgJLcHEa5XkPhuNoP-4" value="&lt;span style=&quot;font-size: 18px; text-align: right;&quot;&gt;wfi_halt_exu_ack&lt;/span&gt;" style="text;html=1;align=left;verticalAlign=middle;whiteSpace=wrap;rounded=0;" parent="1" vertex="1">
          <mxGeometry x="360" y="540" width="200" height="40" as="geometry" />
        </mxCell>
        <mxCell id="unABgJLcHEa5XkPhuNoP-5" value="&lt;span style=&quot;font-size: 18px;&quot;&gt;core_wfi&lt;/span&gt;" style="text;html=1;align=right;verticalAlign=middle;whiteSpace=wrap;rounded=0;" parent="1" vertex="1">
          <mxGeometry x="680" y="540" width="200" height="40" as="geometry" />
        </mxCell>
        <mxCell id="unABgJLcHEa5XkPhuNoP-6" value="&lt;span style=&quot;font-size: 18px;&quot;&gt;dbg_irq_r&lt;/span&gt;" style="text;html=1;align=left;verticalAlign=middle;whiteSpace=wrap;rounded=0;" parent="1" vertex="1">
          <mxGeometry x="360" y="580" width="200" height="40" as="geometry" />
        </mxCell>
        <mxCell id="unABgJLcHEa5XkPhuNoP-7" value="&lt;span style=&quot;font-size: 18px;&quot;&gt;nonflush_cmt_ena&lt;/span&gt;" style="text;html=1;align=right;verticalAlign=middle;whiteSpace=wrap;rounded=0;" parent="1" vertex="1">
          <mxGeometry x="680" y="580" width="200" height="40" as="geometry" />
        </mxCell>
        <mxCell id="unABgJLcHEa5XkPhuNoP-24" value="&lt;span style=&quot;font-size: 18px;&quot;&gt;lcl_irq_r&lt;/span&gt;" style="text;html=1;align=left;verticalAlign=middle;whiteSpace=wrap;rounded=0;" parent="1" vertex="1">
          <mxGeometry x="360" y="620" width="200" height="40" as="geometry" />
        </mxCell>
        <mxCell id="unABgJLcHEa5XkPhuNoP-25" value="&lt;span style=&quot;font-size: 18px;&quot;&gt;excp_active&lt;/span&gt;" style="text;html=1;align=right;verticalAlign=middle;whiteSpace=wrap;rounded=0;" parent="1" vertex="1">
          <mxGeometry x="680" y="620" width="200" height="40" as="geometry" />
        </mxCell>
        <mxCell id="unABgJLcHEa5XkPhuNoP-26" value="&lt;span style=&quot;font-size: 18px;&quot;&gt;ext_irq_r&lt;/span&gt;" style="text;html=1;align=left;verticalAlign=middle;whiteSpace=wrap;rounded=0;" parent="1" vertex="1">
          <mxGeometry x="360" y="660" width="200" height="40" as="geometry" />
        </mxCell>
        <mxCell id="unABgJLcHEa5XkPhuNoP-27" value="&lt;span style=&quot;font-size: 18px;&quot;&gt;wfi_halt_ifu_req&lt;/span&gt;" style="text;html=1;align=right;verticalAlign=middle;whiteSpace=wrap;rounded=0;" parent="1" vertex="1">
          <mxGeometry x="680" y="660" width="200" height="40" as="geometry" />
        </mxCell>
        <mxCell id="unABgJLcHEa5XkPhuNoP-28" value="&lt;span style=&quot;font-size: 18px;&quot;&gt;sft_irq_r&lt;/span&gt;" style="text;html=1;align=left;verticalAlign=middle;whiteSpace=wrap;rounded=0;" parent="1" vertex="1">
          <mxGeometry x="360" y="700" width="200" height="40" as="geometry" />
        </mxCell>
        <mxCell id="unABgJLcHEa5XkPhuNoP-29" value="&lt;span style=&quot;font-size: 18px;&quot;&gt;wfi_halt_exu_req&lt;/span&gt;" style="text;html=1;align=right;verticalAlign=middle;whiteSpace=wrap;rounded=0;" parent="1" vertex="1">
          <mxGeometry x="680" y="700" width="200" height="40" as="geometry" />
        </mxCell>
        <mxCell id="unABgJLcHEa5XkPhuNoP-30" value="&lt;span style=&quot;font-size: 18px;&quot;&gt;tmr_irq_r&lt;/span&gt;" style="text;html=1;align=left;verticalAlign=middle;whiteSpace=wrap;rounded=0;" parent="1" vertex="1">
          <mxGeometry x="360" y="740" width="200" height="40" as="geometry" />
        </mxCell>
        <mxCell id="unABgJLcHEa5XkPhuNoP-31" value="&lt;span style=&quot;font-size: 18px; text-align: left;&quot;&gt;alu_cmt_i_ready&lt;/span&gt;" style="text;html=1;align=right;verticalAlign=middle;whiteSpace=wrap;rounded=0;" parent="1" vertex="1">
          <mxGeometry x="680" y="740" width="200" height="40" as="geometry" />
        </mxCell>
        <mxCell id="unABgJLcHEa5XkPhuNoP-32" value="&lt;span style=&quot;font-size: 18px;&quot;&gt;evt_r&lt;/span&gt;" style="text;html=1;align=left;verticalAlign=middle;whiteSpace=wrap;rounded=0;" parent="1" vertex="1">
          <mxGeometry x="360" y="780" width="200" height="40" as="geometry" />
        </mxCell>
        <mxCell id="unABgJLcHEa5XkPhuNoP-33" value="&lt;span style=&quot;font-size: 18px;&quot;&gt;cmt_badaddr&lt;/span&gt;" style="text;html=1;align=right;verticalAlign=middle;whiteSpace=wrap;rounded=0;" parent="1" vertex="1">
          <mxGeometry x="680" y="780" width="200" height="40" as="geometry" />
        </mxCell>
        <mxCell id="unABgJLcHEa5XkPhuNoP-34" value="&lt;span style=&quot;font-size: 18px;&quot;&gt;status_mie_r&lt;/span&gt;" style="text;html=1;align=left;verticalAlign=middle;whiteSpace=wrap;rounded=0;" parent="1" vertex="1">
          <mxGeometry x="360" y="820" width="200" height="40" as="geometry" />
        </mxCell>
        <mxCell id="unABgJLcHEa5XkPhuNoP-35" value="&lt;span style=&quot;font-size: 18px;&quot;&gt;cmt_badaddr_ena&lt;/span&gt;" style="text;html=1;align=right;verticalAlign=middle;whiteSpace=wrap;rounded=0;" parent="1" vertex="1">
          <mxGeometry x="680" y="820" width="200" height="40" as="geometry" />
        </mxCell>
        <mxCell id="unABgJLcHEa5XkPhuNoP-36" value="&lt;span style=&quot;font-size: 18px;&quot;&gt;mtie_r&lt;/span&gt;" style="text;html=1;align=left;verticalAlign=middle;whiteSpace=wrap;rounded=0;" parent="1" vertex="1">
          <mxGeometry x="360" y="860" width="200" height="40" as="geometry" />
        </mxCell>
        <mxCell id="unABgJLcHEa5XkPhuNoP-37" value="&lt;span style=&quot;font-size: 18px;&quot;&gt;cmt_epc&lt;/span&gt;" style="text;html=1;align=right;verticalAlign=middle;whiteSpace=wrap;rounded=0;" parent="1" vertex="1">
          <mxGeometry x="680" y="860" width="200" height="40" as="geometry" />
        </mxCell>
        <mxCell id="unABgJLcHEa5XkPhuNoP-38" value="&lt;span style=&quot;font-size: 18px;&quot;&gt;msie_r&lt;/span&gt;" style="text;html=1;align=left;verticalAlign=middle;whiteSpace=wrap;rounded=0;" parent="1" vertex="1">
          <mxGeometry x="360" y="900" width="200" height="40" as="geometry" />
        </mxCell>
        <mxCell id="unABgJLcHEa5XkPhuNoP-39" value="&lt;span style=&quot;font-size: 18px;&quot;&gt;cmt_epc_ena&lt;/span&gt;" style="text;html=1;align=right;verticalAlign=middle;whiteSpace=wrap;rounded=0;" parent="1" vertex="1">
          <mxGeometry x="680" y="900" width="200" height="40" as="geometry" />
        </mxCell>
        <mxCell id="unABgJLcHEa5XkPhuNoP-40" value="&lt;span style=&quot;font-size: 18px;&quot;&gt;meie_r&lt;/span&gt;" style="text;html=1;align=left;verticalAlign=middle;whiteSpace=wrap;rounded=0;" parent="1" vertex="1">
          <mxGeometry x="360" y="940" width="200" height="40" as="geometry" />
        </mxCell>
        <mxCell id="unABgJLcHEa5XkPhuNoP-41" value="&lt;span style=&quot;font-size: 18px;&quot;&gt;cmt_cause&lt;/span&gt;" style="text;html=1;align=right;verticalAlign=middle;whiteSpace=wrap;rounded=0;" parent="1" vertex="1">
          <mxGeometry x="680" y="940" width="200" height="40" as="geometry" />
        </mxCell>
        <mxCell id="unABgJLcHEa5XkPhuNoP-42" value="&lt;span style=&quot;font-size: 18px;&quot;&gt;alu_cmt_i_valid&lt;/span&gt;" style="text;html=1;align=left;verticalAlign=middle;whiteSpace=wrap;rounded=0;" parent="1" vertex="1">
          <mxGeometry x="360" y="980" width="200" height="40" as="geometry" />
        </mxCell>
        <mxCell id="unABgJLcHEa5XkPhuNoP-43" value="&lt;span style=&quot;font-size: 18px;&quot;&gt;cmt_cause_ena&lt;/span&gt;" style="text;html=1;align=right;verticalAlign=middle;whiteSpace=wrap;rounded=0;" parent="1" vertex="1">
          <mxGeometry x="680" y="980" width="200" height="40" as="geometry" />
        </mxCell>
        <mxCell id="unABgJLcHEa5XkPhuNoP-44" value="&lt;span style=&quot;font-size: 18px;&quot;&gt;alu_cmt_i_pc&lt;/span&gt;" style="text;html=1;align=left;verticalAlign=middle;whiteSpace=wrap;rounded=0;" parent="1" vertex="1">
          <mxGeometry x="360" y="1020" width="200" height="40" as="geometry" />
        </mxCell>
        <mxCell id="unABgJLcHEa5XkPhuNoP-45" value="&lt;span style=&quot;font-size: 18px;&quot;&gt;cmt_instret_ena&lt;/span&gt;" style="text;html=1;align=right;verticalAlign=middle;whiteSpace=wrap;rounded=0;" parent="1" vertex="1">
          <mxGeometry x="680" y="1020" width="200" height="40" as="geometry" />
        </mxCell>
        <mxCell id="unABgJLcHEa5XkPhuNoP-46" value="&lt;span style=&quot;font-size: 18px;&quot;&gt;alu_cmt_i_instr&lt;/span&gt;" style="text;html=1;align=left;verticalAlign=middle;whiteSpace=wrap;rounded=0;" parent="1" vertex="1">
          <mxGeometry x="360" y="1060" width="200" height="40" as="geometry" />
        </mxCell>
        <mxCell id="unABgJLcHEa5XkPhuNoP-47" value="&lt;span style=&quot;font-size: 18px;&quot;&gt;cmt_status_ena&lt;/span&gt;" style="text;html=1;align=right;verticalAlign=middle;whiteSpace=wrap;rounded=0;" parent="1" vertex="1">
          <mxGeometry x="680" y="1060" width="200" height="40" as="geometry" />
        </mxCell>
        <mxCell id="unABgJLcHEa5XkPhuNoP-48" value="&lt;span style=&quot;font-size: 18px;&quot;&gt;alu_cmt_i_pc_vld&lt;/span&gt;" style="text;html=1;align=left;verticalAlign=middle;whiteSpace=wrap;rounded=0;" parent="1" vertex="1">
          <mxGeometry x="360" y="1100" width="200" height="40" as="geometry" />
        </mxCell>
        <mxCell id="unABgJLcHEa5XkPhuNoP-49" value="&lt;span style=&quot;font-size: 18px;&quot;&gt;cmt_dpc&lt;/span&gt;" style="text;html=1;align=right;verticalAlign=middle;whiteSpace=wrap;rounded=0;" parent="1" vertex="1">
          <mxGeometry x="680" y="1100" width="200" height="40" as="geometry" />
        </mxCell>
        <mxCell id="unABgJLcHEa5XkPhuNoP-50" value="" style="endArrow=classic;html=1;rounded=0;" parent="1" edge="1">
          <mxGeometry width="50" height="50" relative="1" as="geometry">
            <mxPoint x="880" y="960" as="sourcePoint" />
            <mxPoint x="960" y="960" as="targetPoint" />
          </mxGeometry>
        </mxCell>
        <mxCell id="unABgJLcHEa5XkPhuNoP-51" value="" style="endArrow=classic;html=1;rounded=0;" parent="1" edge="1">
          <mxGeometry width="50" height="50" relative="1" as="geometry">
            <mxPoint x="880" y="1000" as="sourcePoint" />
            <mxPoint x="960" y="1000" as="targetPoint" />
          </mxGeometry>
        </mxCell>
        <mxCell id="unABgJLcHEa5XkPhuNoP-52" value="" style="endArrow=classic;html=1;rounded=0;" parent="1" edge="1">
          <mxGeometry width="50" height="50" relative="1" as="geometry">
            <mxPoint x="880" y="1040" as="sourcePoint" />
            <mxPoint x="960" y="1040" as="targetPoint" />
          </mxGeometry>
        </mxCell>
        <mxCell id="unABgJLcHEa5XkPhuNoP-53" value="" style="endArrow=classic;html=1;rounded=0;" parent="1" edge="1">
          <mxGeometry width="50" height="50" relative="1" as="geometry">
            <mxPoint x="880" y="1080" as="sourcePoint" />
            <mxPoint x="960" y="1080" as="targetPoint" />
          </mxGeometry>
        </mxCell>
        <mxCell id="unABgJLcHEa5XkPhuNoP-54" value="" style="endArrow=classic;html=1;rounded=0;" parent="1" edge="1">
          <mxGeometry width="50" height="50" relative="1" as="geometry">
            <mxPoint x="880" y="1119.5" as="sourcePoint" />
            <mxPoint x="960" y="1119.5" as="targetPoint" />
          </mxGeometry>
        </mxCell>
        <mxCell id="Re_YdN9vPwHUGO7l-YeB-1" value="" style="endArrow=classic;html=1;rounded=0;" edge="1" parent="1">
          <mxGeometry width="50" height="50" relative="1" as="geometry">
            <mxPoint x="280" y="1160" as="sourcePoint" />
            <mxPoint x="360" y="1160" as="targetPoint" />
          </mxGeometry>
        </mxCell>
        <mxCell id="Re_YdN9vPwHUGO7l-YeB-2" value="" style="endArrow=classic;html=1;rounded=0;" edge="1" parent="1">
          <mxGeometry width="50" height="50" relative="1" as="geometry">
            <mxPoint x="280" y="1200" as="sourcePoint" />
            <mxPoint x="360" y="1200" as="targetPoint" />
          </mxGeometry>
        </mxCell>
        <mxCell id="Re_YdN9vPwHUGO7l-YeB-3" value="" style="endArrow=classic;html=1;rounded=0;" edge="1" parent="1">
          <mxGeometry width="50" height="50" relative="1" as="geometry">
            <mxPoint x="280" y="1240" as="sourcePoint" />
            <mxPoint x="360" y="1240" as="targetPoint" />
          </mxGeometry>
        </mxCell>
        <mxCell id="Re_YdN9vPwHUGO7l-YeB-4" value="" style="endArrow=classic;html=1;rounded=0;" edge="1" parent="1">
          <mxGeometry width="50" height="50" relative="1" as="geometry">
            <mxPoint x="280" y="1280" as="sourcePoint" />
            <mxPoint x="360" y="1280" as="targetPoint" />
          </mxGeometry>
        </mxCell>
        <mxCell id="Re_YdN9vPwHUGO7l-YeB-5" value="" style="endArrow=classic;html=1;rounded=0;" edge="1" parent="1">
          <mxGeometry width="50" height="50" relative="1" as="geometry">
            <mxPoint x="280" y="1320" as="sourcePoint" />
            <mxPoint x="360" y="1320" as="targetPoint" />
          </mxGeometry>
        </mxCell>
        <mxCell id="Re_YdN9vPwHUGO7l-YeB-6" value="" style="endArrow=classic;html=1;rounded=0;" edge="1" parent="1">
          <mxGeometry width="50" height="50" relative="1" as="geometry">
            <mxPoint x="280" y="1360" as="sourcePoint" />
            <mxPoint x="360" y="1360" as="targetPoint" />
          </mxGeometry>
        </mxCell>
        <mxCell id="Re_YdN9vPwHUGO7l-YeB-7" value="" style="endArrow=classic;html=1;rounded=0;" edge="1" parent="1">
          <mxGeometry width="50" height="50" relative="1" as="geometry">
            <mxPoint x="280" y="1400" as="sourcePoint" />
            <mxPoint x="360" y="1400" as="targetPoint" />
          </mxGeometry>
        </mxCell>
        <mxCell id="Re_YdN9vPwHUGO7l-YeB-8" value="" style="endArrow=classic;html=1;rounded=0;" edge="1" parent="1">
          <mxGeometry width="50" height="50" relative="1" as="geometry">
            <mxPoint x="280" y="1440" as="sourcePoint" />
            <mxPoint x="360" y="1440" as="targetPoint" />
          </mxGeometry>
        </mxCell>
        <mxCell id="Re_YdN9vPwHUGO7l-YeB-9" value="" style="endArrow=classic;html=1;rounded=0;" edge="1" parent="1">
          <mxGeometry width="50" height="50" relative="1" as="geometry">
            <mxPoint x="280" y="1480" as="sourcePoint" />
            <mxPoint x="360" y="1480" as="targetPoint" />
          </mxGeometry>
        </mxCell>
        <mxCell id="Re_YdN9vPwHUGO7l-YeB-10" value="" style="endArrow=classic;html=1;rounded=0;" edge="1" parent="1">
          <mxGeometry width="50" height="50" relative="1" as="geometry">
            <mxPoint x="280" y="1520" as="sourcePoint" />
            <mxPoint x="360" y="1520" as="targetPoint" />
          </mxGeometry>
        </mxCell>
        <mxCell id="Re_YdN9vPwHUGO7l-YeB-11" value="" style="endArrow=classic;html=1;rounded=0;" edge="1" parent="1">
          <mxGeometry width="50" height="50" relative="1" as="geometry">
            <mxPoint x="280" y="1560" as="sourcePoint" />
            <mxPoint x="360" y="1560" as="targetPoint" />
          </mxGeometry>
        </mxCell>
        <mxCell id="Re_YdN9vPwHUGO7l-YeB-12" value="" style="endArrow=classic;html=1;rounded=0;" edge="1" parent="1">
          <mxGeometry width="50" height="50" relative="1" as="geometry">
            <mxPoint x="280" y="1600" as="sourcePoint" />
            <mxPoint x="360" y="1600" as="targetPoint" />
          </mxGeometry>
        </mxCell>
        <mxCell id="Re_YdN9vPwHUGO7l-YeB-13" value="" style="endArrow=classic;html=1;rounded=0;" edge="1" parent="1">
          <mxGeometry width="50" height="50" relative="1" as="geometry">
            <mxPoint x="280" y="1640" as="sourcePoint" />
            <mxPoint x="360" y="1640" as="targetPoint" />
          </mxGeometry>
        </mxCell>
        <mxCell id="Re_YdN9vPwHUGO7l-YeB-14" value="" style="endArrow=classic;html=1;rounded=0;" edge="1" parent="1">
          <mxGeometry width="50" height="50" relative="1" as="geometry">
            <mxPoint x="880" y="1159.5" as="sourcePoint" />
            <mxPoint x="960" y="1159.5" as="targetPoint" />
          </mxGeometry>
        </mxCell>
        <mxCell id="Re_YdN9vPwHUGO7l-YeB-15" value="" style="endArrow=classic;html=1;rounded=0;" edge="1" parent="1">
          <mxGeometry width="50" height="50" relative="1" as="geometry">
            <mxPoint x="880" y="1199.5" as="sourcePoint" />
            <mxPoint x="960" y="1199.5" as="targetPoint" />
          </mxGeometry>
        </mxCell>
        <mxCell id="Re_YdN9vPwHUGO7l-YeB-16" value="" style="endArrow=classic;html=1;rounded=0;" edge="1" parent="1">
          <mxGeometry width="50" height="50" relative="1" as="geometry">
            <mxPoint x="880" y="1239.5" as="sourcePoint" />
            <mxPoint x="960" y="1239.5" as="targetPoint" />
          </mxGeometry>
        </mxCell>
        <mxCell id="Re_YdN9vPwHUGO7l-YeB-17" value="" style="endArrow=classic;html=1;rounded=0;" edge="1" parent="1">
          <mxGeometry width="50" height="50" relative="1" as="geometry">
            <mxPoint x="880" y="1280" as="sourcePoint" />
            <mxPoint x="960" y="1280" as="targetPoint" />
          </mxGeometry>
        </mxCell>
        <mxCell id="Re_YdN9vPwHUGO7l-YeB-18" value="" style="endArrow=classic;html=1;rounded=0;" edge="1" parent="1">
          <mxGeometry width="50" height="50" relative="1" as="geometry">
            <mxPoint x="880" y="1320" as="sourcePoint" />
            <mxPoint x="960" y="1320" as="targetPoint" />
          </mxGeometry>
        </mxCell>
        <mxCell id="Re_YdN9vPwHUGO7l-YeB-19" value="" style="endArrow=classic;html=1;rounded=0;" edge="1" parent="1">
          <mxGeometry width="50" height="50" relative="1" as="geometry">
            <mxPoint x="880" y="1360" as="sourcePoint" />
            <mxPoint x="960" y="1360" as="targetPoint" />
          </mxGeometry>
        </mxCell>
        <mxCell id="Re_YdN9vPwHUGO7l-YeB-20" value="" style="endArrow=classic;html=1;rounded=0;" edge="1" parent="1">
          <mxGeometry width="50" height="50" relative="1" as="geometry">
            <mxPoint x="880" y="1400" as="sourcePoint" />
            <mxPoint x="960" y="1400" as="targetPoint" />
          </mxGeometry>
        </mxCell>
        <mxCell id="Re_YdN9vPwHUGO7l-YeB-21" value="" style="endArrow=classic;html=1;rounded=0;" edge="1" parent="1">
          <mxGeometry width="50" height="50" relative="1" as="geometry">
            <mxPoint x="880" y="1440" as="sourcePoint" />
            <mxPoint x="960" y="1440" as="targetPoint" />
          </mxGeometry>
        </mxCell>
        <mxCell id="Re_YdN9vPwHUGO7l-YeB-22" value="" style="endArrow=classic;html=1;rounded=0;" edge="1" parent="1">
          <mxGeometry width="50" height="50" relative="1" as="geometry">
            <mxPoint x="880" y="1480" as="sourcePoint" />
            <mxPoint x="960" y="1480" as="targetPoint" />
          </mxGeometry>
        </mxCell>
        <mxCell id="Re_YdN9vPwHUGO7l-YeB-23" value="" style="endArrow=classic;html=1;rounded=0;" edge="1" parent="1">
          <mxGeometry width="50" height="50" relative="1" as="geometry">
            <mxPoint x="880" y="1520" as="sourcePoint" />
            <mxPoint x="960" y="1520" as="targetPoint" />
          </mxGeometry>
        </mxCell>
        <mxCell id="Re_YdN9vPwHUGO7l-YeB-24" value="" style="endArrow=classic;html=1;rounded=0;" edge="1" parent="1">
          <mxGeometry width="50" height="50" relative="1" as="geometry">
            <mxPoint x="880" y="1560" as="sourcePoint" />
            <mxPoint x="960" y="1560" as="targetPoint" />
          </mxGeometry>
        </mxCell>
        <mxCell id="Re_YdN9vPwHUGO7l-YeB-25" value="" style="endArrow=classic;html=1;rounded=0;" edge="1" parent="1">
          <mxGeometry width="50" height="50" relative="1" as="geometry">
            <mxPoint x="280" y="1680" as="sourcePoint" />
            <mxPoint x="360" y="1680" as="targetPoint" />
          </mxGeometry>
        </mxCell>
        <mxCell id="Re_YdN9vPwHUGO7l-YeB-26" value="" style="endArrow=classic;html=1;rounded=0;" edge="1" parent="1">
          <mxGeometry width="50" height="50" relative="1" as="geometry">
            <mxPoint x="280" y="1720" as="sourcePoint" />
            <mxPoint x="360" y="1720" as="targetPoint" />
          </mxGeometry>
        </mxCell>
        <mxCell id="Re_YdN9vPwHUGO7l-YeB-27" value="" style="endArrow=classic;html=1;rounded=0;" edge="1" parent="1">
          <mxGeometry width="50" height="50" relative="1" as="geometry">
            <mxPoint x="280" y="1760" as="sourcePoint" />
            <mxPoint x="360" y="1760" as="targetPoint" />
          </mxGeometry>
        </mxCell>
        <mxCell id="Re_YdN9vPwHUGO7l-YeB-28" value="&lt;span style=&quot;font-size: 18px;&quot;&gt;alu_cmt_i_imm&lt;/span&gt;" style="text;html=1;align=left;verticalAlign=middle;whiteSpace=wrap;rounded=0;" vertex="1" parent="1">
          <mxGeometry x="360" y="1140" width="200" height="40" as="geometry" />
        </mxCell>
        <mxCell id="Re_YdN9vPwHUGO7l-YeB-29" value="&lt;span style=&quot;font-size: 18px;&quot;&gt;cmt_dpc_ena&lt;/span&gt;" style="text;html=1;align=right;verticalAlign=middle;whiteSpace=wrap;rounded=0;" vertex="1" parent="1">
          <mxGeometry x="680" y="1140" width="200" height="40" as="geometry" />
        </mxCell>
        <mxCell id="Re_YdN9vPwHUGO7l-YeB-30" value="&lt;span style=&quot;font-size: 18px;&quot;&gt;alu_cmt_i_rv32&lt;/span&gt;" style="text;html=1;align=left;verticalAlign=middle;whiteSpace=wrap;rounded=0;" vertex="1" parent="1">
          <mxGeometry x="360" y="1180" width="200" height="40" as="geometry" />
        </mxCell>
        <mxCell id="Re_YdN9vPwHUGO7l-YeB-31" value="&lt;span style=&quot;font-size: 18px;&quot;&gt;cmt_dcause&lt;/span&gt;" style="text;html=1;align=right;verticalAlign=middle;whiteSpace=wrap;rounded=0;" vertex="1" parent="1">
          <mxGeometry x="680" y="1180" width="200" height="40" as="geometry" />
        </mxCell>
        <mxCell id="Re_YdN9vPwHUGO7l-YeB-32" value="&lt;span style=&quot;font-size: 18px;&quot;&gt;alu_cmt_i_bjp&lt;/span&gt;" style="text;html=1;align=left;verticalAlign=middle;whiteSpace=wrap;rounded=0;" vertex="1" parent="1">
          <mxGeometry x="360" y="1220" width="200" height="40" as="geometry" />
        </mxCell>
        <mxCell id="Re_YdN9vPwHUGO7l-YeB-33" value="&lt;span style=&quot;font-size: 18px;&quot;&gt;cmt_dcause_ena&lt;/span&gt;" style="text;html=1;align=right;verticalAlign=middle;whiteSpace=wrap;rounded=0;" vertex="1" parent="1">
          <mxGeometry x="680" y="1220" width="200" height="40" as="geometry" />
        </mxCell>
        <mxCell id="Re_YdN9vPwHUGO7l-YeB-34" value="&lt;span style=&quot;font-size: 18px;&quot;&gt;alu_cmt_i_wfi&lt;/span&gt;" style="text;html=1;align=left;verticalAlign=middle;whiteSpace=wrap;rounded=0;" vertex="1" parent="1">
          <mxGeometry x="360" y="1260" width="200" height="40" as="geometry" />
        </mxCell>
        <mxCell id="Re_YdN9vPwHUGO7l-YeB-35" value="&lt;span style=&quot;font-size: 18px;&quot;&gt;cmt_mret_ena&lt;/span&gt;" style="text;html=1;align=right;verticalAlign=middle;whiteSpace=wrap;rounded=0;" vertex="1" parent="1">
          <mxGeometry x="680" y="1260" width="200" height="40" as="geometry" />
        </mxCell>
        <mxCell id="Re_YdN9vPwHUGO7l-YeB-36" value="&lt;span style=&quot;font-size: 18px;&quot;&gt;alu_cmt_i_fencei&lt;/span&gt;" style="text;html=1;align=left;verticalAlign=middle;whiteSpace=wrap;rounded=0;" vertex="1" parent="1">
          <mxGeometry x="360" y="1300" width="200" height="40" as="geometry" />
        </mxCell>
        <mxCell id="Re_YdN9vPwHUGO7l-YeB-37" value="&lt;span style=&quot;font-size: 18px;&quot;&gt;longp_excp_i_ready&lt;/span&gt;" style="text;html=1;align=right;verticalAlign=middle;whiteSpace=wrap;rounded=0;" vertex="1" parent="1">
          <mxGeometry x="680" y="1300" width="200" height="40" as="geometry" />
        </mxCell>
        <mxCell id="Re_YdN9vPwHUGO7l-YeB-38" value="&lt;span style=&quot;font-size: 18px;&quot;&gt;alu_cmt_i_mret&lt;/span&gt;" style="text;html=1;align=left;verticalAlign=middle;whiteSpace=wrap;rounded=0;" vertex="1" parent="1">
          <mxGeometry x="360" y="1340" width="200" height="40" as="geometry" />
        </mxCell>
        <mxCell id="Re_YdN9vPwHUGO7l-YeB-39" value="&lt;span style=&quot;font-size: 18px;&quot;&gt;flush_pulse&lt;/span&gt;" style="text;html=1;align=right;verticalAlign=middle;whiteSpace=wrap;rounded=0;" vertex="1" parent="1">
          <mxGeometry x="680" y="1340" width="200" height="40" as="geometry" />
        </mxCell>
        <mxCell id="Re_YdN9vPwHUGO7l-YeB-40" value="&lt;span style=&quot;font-size: 18px;&quot;&gt;alu_cmt_i_dret&lt;/span&gt;" style="text;html=1;align=left;verticalAlign=middle;whiteSpace=wrap;rounded=0;" vertex="1" parent="1">
          <mxGeometry x="360" y="1380" width="200" height="40" as="geometry" />
        </mxCell>
        <mxCell id="Re_YdN9vPwHUGO7l-YeB-41" value="&lt;span style=&quot;font-size: 18px;&quot;&gt;flush_req&lt;/span&gt;" style="text;html=1;align=right;verticalAlign=middle;whiteSpace=wrap;rounded=0;" vertex="1" parent="1">
          <mxGeometry x="680" y="1380" width="200" height="40" as="geometry" />
        </mxCell>
        <mxCell id="Re_YdN9vPwHUGO7l-YeB-42" value="&lt;span style=&quot;font-size: 18px;&quot;&gt;alu_cmt_i_ecall&lt;/span&gt;" style="text;html=1;align=left;verticalAlign=middle;whiteSpace=wrap;rounded=0;" vertex="1" parent="1">
          <mxGeometry x="360" y="1420" width="200" height="40" as="geometry" />
        </mxCell>
        <mxCell id="Re_YdN9vPwHUGO7l-YeB-43" value="&lt;span style=&quot;font-size: 18px;&quot;&gt;pipe_flush_req&lt;/span&gt;" style="text;html=1;align=right;verticalAlign=middle;whiteSpace=wrap;rounded=0;" vertex="1" parent="1">
          <mxGeometry x="680" y="1420" width="200" height="40" as="geometry" />
        </mxCell>
        <mxCell id="Re_YdN9vPwHUGO7l-YeB-44" value="&lt;span style=&quot;font-size: 18px;&quot;&gt;alu_cmt_i_ebreak&lt;/span&gt;" style="text;html=1;align=left;verticalAlign=middle;whiteSpace=wrap;rounded=0;" vertex="1" parent="1">
          <mxGeometry x="360" y="1460" width="200" height="40" as="geometry" />
        </mxCell>
        <mxCell id="Re_YdN9vPwHUGO7l-YeB-45" value="&lt;span style=&quot;font-size: 18px;&quot;&gt;pipe_flush_add_op1&lt;/span&gt;" style="text;html=1;align=right;verticalAlign=middle;whiteSpace=wrap;rounded=0;" vertex="1" parent="1">
          <mxGeometry x="680" y="1460" width="200" height="40" as="geometry" />
        </mxCell>
        <mxCell id="Re_YdN9vPwHUGO7l-YeB-46" value="&lt;span style=&quot;font-size: 18px;&quot;&gt;alu_cmt_i_ifu_misalgn&lt;/span&gt;" style="text;html=1;align=left;verticalAlign=middle;whiteSpace=wrap;rounded=0;" vertex="1" parent="1">
          <mxGeometry x="360" y="1500" width="200" height="40" as="geometry" />
        </mxCell>
        <mxCell id="Re_YdN9vPwHUGO7l-YeB-47" value="&lt;span style=&quot;font-size: 18px;&quot;&gt;pipe_flush_add_op2&lt;/span&gt;" style="text;html=1;align=right;verticalAlign=middle;whiteSpace=wrap;rounded=0;" vertex="1" parent="1">
          <mxGeometry x="680" y="1500" width="200" height="40" as="geometry" />
        </mxCell>
        <mxCell id="Re_YdN9vPwHUGO7l-YeB-48" value="&lt;span style=&quot;font-size: 18px;&quot;&gt;alu_cmt_i_ifu_buserr&lt;/span&gt;" style="text;html=1;align=left;verticalAlign=middle;whiteSpace=wrap;rounded=0;" vertex="1" parent="1">
          <mxGeometry x="360" y="1540" width="200" height="40" as="geometry" />
        </mxCell>
        <mxCell id="Re_YdN9vPwHUGO7l-YeB-49" value="&lt;span style=&quot;font-size: 18px;&quot;&gt;pipe_flush_pc*&lt;/span&gt;" style="text;html=1;align=right;verticalAlign=middle;whiteSpace=wrap;rounded=0;" vertex="1" parent="1">
          <mxGeometry x="680" y="1540" width="200" height="40" as="geometry" />
        </mxCell>
        <mxCell id="Re_YdN9vPwHUGO7l-YeB-50" value="&lt;span style=&quot;font-size: 18px;&quot;&gt;alu_cmt_i_ifu_ilegl&lt;/span&gt;" style="text;html=1;align=left;verticalAlign=middle;whiteSpace=wrap;rounded=0;" vertex="1" parent="1">
          <mxGeometry x="360" y="1580" width="200" height="40" as="geometry" />
        </mxCell>
        <mxCell id="Re_YdN9vPwHUGO7l-YeB-51" value="&lt;span style=&quot;font-size: 18px;&quot;&gt;a&lt;/span&gt;" style="text;html=1;align=right;verticalAlign=middle;whiteSpace=wrap;rounded=0;" vertex="1" parent="1">
          <mxGeometry x="680" y="1580" width="200" height="40" as="geometry" />
        </mxCell>
        <mxCell id="Re_YdN9vPwHUGO7l-YeB-52" value="&lt;span style=&quot;font-size: 18px;&quot;&gt;alu_cmt_i_bjp_prdt&lt;/span&gt;" style="text;html=1;align=left;verticalAlign=middle;whiteSpace=wrap;rounded=0;" vertex="1" parent="1">
          <mxGeometry x="360" y="1620" width="200" height="40" as="geometry" />
        </mxCell>
        <mxCell id="Re_YdN9vPwHUGO7l-YeB-53" value="&lt;span style=&quot;font-size: 18px;&quot;&gt;a&lt;/span&gt;" style="text;html=1;align=right;verticalAlign=middle;whiteSpace=wrap;rounded=0;" vertex="1" parent="1">
          <mxGeometry x="680" y="1620" width="200" height="40" as="geometry" />
        </mxCell>
        <mxCell id="Re_YdN9vPwHUGO7l-YeB-54" value="&lt;span style=&quot;font-size: 18px;&quot;&gt;alu_cmt_i_bjp_rslv&lt;/span&gt;" style="text;html=1;align=left;verticalAlign=middle;whiteSpace=wrap;rounded=0;" vertex="1" parent="1">
          <mxGeometry x="360" y="1660" width="200" height="40" as="geometry" />
        </mxCell>
        <mxCell id="Re_YdN9vPwHUGO7l-YeB-55" value="&lt;span style=&quot;font-size: 18px;&quot;&gt;a&lt;/span&gt;" style="text;html=1;align=right;verticalAlign=middle;whiteSpace=wrap;rounded=0;" vertex="1" parent="1">
          <mxGeometry x="680" y="1660" width="200" height="40" as="geometry" />
        </mxCell>
        <mxCell id="Re_YdN9vPwHUGO7l-YeB-56" value="&lt;span style=&quot;font-size: 18px;&quot;&gt;alu_cmt_i_misalgn&lt;/span&gt;" style="text;html=1;align=left;verticalAlign=middle;whiteSpace=wrap;rounded=0;" vertex="1" parent="1">
          <mxGeometry x="360" y="1700" width="200" height="40" as="geometry" />
        </mxCell>
        <mxCell id="Re_YdN9vPwHUGO7l-YeB-57" value="&lt;span style=&quot;font-size: 18px;&quot;&gt;a&lt;/span&gt;" style="text;html=1;align=right;verticalAlign=middle;whiteSpace=wrap;rounded=0;" vertex="1" parent="1">
          <mxGeometry x="680" y="1700" width="200" height="40" as="geometry" />
        </mxCell>
        <mxCell id="Re_YdN9vPwHUGO7l-YeB-58" value="&lt;span style=&quot;font-size: 18px;&quot;&gt;alu_cmt_i_ld&lt;/span&gt;" style="text;html=1;align=left;verticalAlign=middle;whiteSpace=wrap;rounded=0;" vertex="1" parent="1">
          <mxGeometry x="360" y="1740" width="200" height="40" as="geometry" />
        </mxCell>
        <mxCell id="Re_YdN9vPwHUGO7l-YeB-59" value="&lt;span style=&quot;font-size: 18px;&quot;&gt;a&lt;/span&gt;" style="text;html=1;align=right;verticalAlign=middle;whiteSpace=wrap;rounded=0;" vertex="1" parent="1">
          <mxGeometry x="680" y="1740" width="200" height="40" as="geometry" />
        </mxCell>
        <mxCell id="Re_YdN9vPwHUGO7l-YeB-60" value="" style="endArrow=classic;html=1;rounded=0;" edge="1" parent="1">
          <mxGeometry width="50" height="50" relative="1" as="geometry">
            <mxPoint x="880" y="1600" as="sourcePoint" />
            <mxPoint x="960" y="1600" as="targetPoint" />
          </mxGeometry>
        </mxCell>
        <mxCell id="Re_YdN9vPwHUGO7l-YeB-61" value="" style="endArrow=classic;html=1;rounded=0;" edge="1" parent="1">
          <mxGeometry width="50" height="50" relative="1" as="geometry">
            <mxPoint x="880" y="1640" as="sourcePoint" />
            <mxPoint x="960" y="1640" as="targetPoint" />
          </mxGeometry>
        </mxCell>
        <mxCell id="Re_YdN9vPwHUGO7l-YeB-62" value="" style="endArrow=classic;html=1;rounded=0;" edge="1" parent="1">
          <mxGeometry width="50" height="50" relative="1" as="geometry">
            <mxPoint x="880" y="1680" as="sourcePoint" />
            <mxPoint x="960" y="1680" as="targetPoint" />
          </mxGeometry>
        </mxCell>
        <mxCell id="Re_YdN9vPwHUGO7l-YeB-63" value="" style="endArrow=classic;html=1;rounded=0;" edge="1" parent="1">
          <mxGeometry width="50" height="50" relative="1" as="geometry">
            <mxPoint x="880" y="1720" as="sourcePoint" />
            <mxPoint x="960" y="1720" as="targetPoint" />
          </mxGeometry>
        </mxCell>
        <mxCell id="Re_YdN9vPwHUGO7l-YeB-64" value="" style="endArrow=classic;html=1;rounded=0;" edge="1" parent="1">
          <mxGeometry width="50" height="50" relative="1" as="geometry">
            <mxPoint x="880" y="1759.5" as="sourcePoint" />
            <mxPoint x="960" y="1759.5" as="targetPoint" />
          </mxGeometry>
        </mxCell>
        <mxCell id="Re_YdN9vPwHUGO7l-YeB-65" value="" style="endArrow=classic;html=1;rounded=0;" edge="1" parent="1">
          <mxGeometry width="50" height="50" relative="1" as="geometry">
            <mxPoint x="280" y="1800" as="sourcePoint" />
            <mxPoint x="360" y="1800" as="targetPoint" />
          </mxGeometry>
        </mxCell>
        <mxCell id="Re_YdN9vPwHUGO7l-YeB-66" value="" style="endArrow=classic;html=1;rounded=0;" edge="1" parent="1">
          <mxGeometry width="50" height="50" relative="1" as="geometry">
            <mxPoint x="280" y="1840" as="sourcePoint" />
            <mxPoint x="360" y="1840" as="targetPoint" />
          </mxGeometry>
        </mxCell>
        <mxCell id="Re_YdN9vPwHUGO7l-YeB-67" value="" style="endArrow=classic;html=1;rounded=0;" edge="1" parent="1">
          <mxGeometry width="50" height="50" relative="1" as="geometry">
            <mxPoint x="280" y="1880" as="sourcePoint" />
            <mxPoint x="360" y="1880" as="targetPoint" />
          </mxGeometry>
        </mxCell>
        <mxCell id="Re_YdN9vPwHUGO7l-YeB-68" value="" style="endArrow=classic;html=1;rounded=0;" edge="1" parent="1">
          <mxGeometry width="50" height="50" relative="1" as="geometry">
            <mxPoint x="280" y="1920" as="sourcePoint" />
            <mxPoint x="360" y="1920" as="targetPoint" />
          </mxGeometry>
        </mxCell>
        <mxCell id="Re_YdN9vPwHUGO7l-YeB-69" value="" style="endArrow=classic;html=1;rounded=0;" edge="1" parent="1">
          <mxGeometry width="50" height="50" relative="1" as="geometry">
            <mxPoint x="880" y="1800" as="sourcePoint" />
            <mxPoint x="960" y="1800" as="targetPoint" />
          </mxGeometry>
        </mxCell>
        <mxCell id="Re_YdN9vPwHUGO7l-YeB-70" value="" style="endArrow=classic;html=1;rounded=0;" edge="1" parent="1">
          <mxGeometry width="50" height="50" relative="1" as="geometry">
            <mxPoint x="880" y="1840" as="sourcePoint" />
            <mxPoint x="960" y="1840" as="targetPoint" />
          </mxGeometry>
        </mxCell>
        <mxCell id="Re_YdN9vPwHUGO7l-YeB-71" value="" style="endArrow=classic;html=1;rounded=0;" edge="1" parent="1">
          <mxGeometry width="50" height="50" relative="1" as="geometry">
            <mxPoint x="280" y="1960" as="sourcePoint" />
            <mxPoint x="360" y="1960" as="targetPoint" />
          </mxGeometry>
        </mxCell>
        <mxCell id="Re_YdN9vPwHUGO7l-YeB-72" value="" style="endArrow=classic;html=1;rounded=0;" edge="1" parent="1">
          <mxGeometry width="50" height="50" relative="1" as="geometry">
            <mxPoint x="280" y="2000" as="sourcePoint" />
            <mxPoint x="360" y="2000" as="targetPoint" />
          </mxGeometry>
        </mxCell>
        <mxCell id="Re_YdN9vPwHUGO7l-YeB-73" value="" style="endArrow=classic;html=1;rounded=0;" edge="1" parent="1">
          <mxGeometry width="50" height="50" relative="1" as="geometry">
            <mxPoint x="280" y="2040" as="sourcePoint" />
            <mxPoint x="360" y="2040" as="targetPoint" />
          </mxGeometry>
        </mxCell>
        <mxCell id="Re_YdN9vPwHUGO7l-YeB-74" value="&lt;span style=&quot;font-size: 18px;&quot;&gt;alu_cmt_i_stamo&lt;/span&gt;" style="text;html=1;align=left;verticalAlign=middle;whiteSpace=wrap;rounded=0;" vertex="1" parent="1">
          <mxGeometry x="360" y="1780" width="200" height="40" as="geometry" />
        </mxCell>
        <mxCell id="Re_YdN9vPwHUGO7l-YeB-75" value="&lt;span style=&quot;font-size: 18px;&quot;&gt;a&lt;/span&gt;" style="text;html=1;align=right;verticalAlign=middle;whiteSpace=wrap;rounded=0;" vertex="1" parent="1">
          <mxGeometry x="680" y="1780" width="200" height="40" as="geometry" />
        </mxCell>
        <mxCell id="Re_YdN9vPwHUGO7l-YeB-76" value="&lt;span style=&quot;font-size: 18px;&quot;&gt;alu_cmt_i_buserr&lt;/span&gt;" style="text;html=1;align=left;verticalAlign=middle;whiteSpace=wrap;rounded=0;" vertex="1" parent="1">
          <mxGeometry x="360" y="1820" width="200" height="40" as="geometry" />
        </mxCell>
        <mxCell id="Re_YdN9vPwHUGO7l-YeB-77" value="&lt;span style=&quot;font-size: 18px;&quot;&gt;a&lt;/span&gt;" style="text;html=1;align=right;verticalAlign=middle;whiteSpace=wrap;rounded=0;" vertex="1" parent="1">
          <mxGeometry x="680" y="1820" width="200" height="40" as="geometry" />
        </mxCell>
        <mxCell id="Re_YdN9vPwHUGO7l-YeB-78" value="&lt;span style=&quot;font-size: 18px;&quot;&gt;alu_cmt_i_badaddr&lt;/span&gt;" style="text;html=1;align=left;verticalAlign=middle;whiteSpace=wrap;rounded=0;" vertex="1" parent="1">
          <mxGeometry x="360" y="1860" width="200" height="40" as="geometry" />
        </mxCell>
        <mxCell id="Re_YdN9vPwHUGO7l-YeB-79" value="&lt;span style=&quot;font-size: 18px;&quot;&gt;a&lt;/span&gt;" style="text;html=1;align=right;verticalAlign=middle;whiteSpace=wrap;rounded=0;" vertex="1" parent="1">
          <mxGeometry x="680" y="1860" width="200" height="40" as="geometry" />
        </mxCell>
        <mxCell id="Re_YdN9vPwHUGO7l-YeB-80" value="&lt;span style=&quot;font-size: 18px;&quot;&gt;csr_epc_r&lt;/span&gt;" style="text;html=1;align=left;verticalAlign=middle;whiteSpace=wrap;rounded=0;" vertex="1" parent="1">
          <mxGeometry x="360" y="1900" width="200" height="40" as="geometry" />
        </mxCell>
        <mxCell id="Re_YdN9vPwHUGO7l-YeB-81" value="&lt;span style=&quot;font-size: 18px;&quot;&gt;a&lt;/span&gt;" style="text;html=1;align=right;verticalAlign=middle;whiteSpace=wrap;rounded=0;" vertex="1" parent="1">
          <mxGeometry x="680" y="1900" width="200" height="40" as="geometry" />
        </mxCell>
        <mxCell id="Re_YdN9vPwHUGO7l-YeB-82" value="&lt;span style=&quot;font-size: 18px;&quot;&gt;csr_dpc_r&lt;/span&gt;" style="text;html=1;align=left;verticalAlign=middle;whiteSpace=wrap;rounded=0;" vertex="1" parent="1">
          <mxGeometry x="360" y="1940" width="200" height="40" as="geometry" />
        </mxCell>
        <mxCell id="Re_YdN9vPwHUGO7l-YeB-83" value="&lt;span style=&quot;font-size: 18px;&quot;&gt;a&lt;/span&gt;" style="text;html=1;align=right;verticalAlign=middle;whiteSpace=wrap;rounded=0;" vertex="1" parent="1">
          <mxGeometry x="680" y="1940" width="200" height="40" as="geometry" />
        </mxCell>
        <mxCell id="Re_YdN9vPwHUGO7l-YeB-84" value="&lt;span style=&quot;font-size: 18px;&quot;&gt;csr_mtvec_r&lt;/span&gt;" style="text;html=1;align=left;verticalAlign=middle;whiteSpace=wrap;rounded=0;" vertex="1" parent="1">
          <mxGeometry x="360" y="1980" width="200" height="40" as="geometry" />
        </mxCell>
        <mxCell id="Re_YdN9vPwHUGO7l-YeB-85" value="&lt;span style=&quot;font-size: 18px;&quot;&gt;a&lt;/span&gt;" style="text;html=1;align=right;verticalAlign=middle;whiteSpace=wrap;rounded=0;" vertex="1" parent="1">
          <mxGeometry x="680" y="1980" width="200" height="40" as="geometry" />
        </mxCell>
        <mxCell id="Re_YdN9vPwHUGO7l-YeB-86" value="&lt;span style=&quot;font-size: 18px;&quot;&gt;dbg_mode&lt;/span&gt;" style="text;html=1;align=left;verticalAlign=middle;whiteSpace=wrap;rounded=0;" vertex="1" parent="1">
          <mxGeometry x="360" y="2020" width="200" height="40" as="geometry" />
        </mxCell>
        <mxCell id="Re_YdN9vPwHUGO7l-YeB-87" value="&lt;span style=&quot;font-size: 18px;&quot;&gt;a&lt;/span&gt;" style="text;html=1;align=right;verticalAlign=middle;whiteSpace=wrap;rounded=0;" vertex="1" parent="1">
          <mxGeometry x="680" y="2020" width="200" height="40" as="geometry" />
        </mxCell>
        <mxCell id="Re_YdN9vPwHUGO7l-YeB-88" value="" style="endArrow=classic;html=1;rounded=0;" edge="1" parent="1">
          <mxGeometry width="50" height="50" relative="1" as="geometry">
            <mxPoint x="880" y="1880" as="sourcePoint" />
            <mxPoint x="960" y="1880" as="targetPoint" />
          </mxGeometry>
        </mxCell>
        <mxCell id="Re_YdN9vPwHUGO7l-YeB-89" value="" style="endArrow=classic;html=1;rounded=0;" edge="1" parent="1">
          <mxGeometry width="50" height="50" relative="1" as="geometry">
            <mxPoint x="880" y="1920" as="sourcePoint" />
            <mxPoint x="960" y="1920" as="targetPoint" />
          </mxGeometry>
        </mxCell>
        <mxCell id="Re_YdN9vPwHUGO7l-YeB-90" value="" style="endArrow=classic;html=1;rounded=0;" edge="1" parent="1">
          <mxGeometry width="50" height="50" relative="1" as="geometry">
            <mxPoint x="880" y="1960" as="sourcePoint" />
            <mxPoint x="960" y="1960" as="targetPoint" />
          </mxGeometry>
        </mxCell>
        <mxCell id="Re_YdN9vPwHUGO7l-YeB-91" value="" style="endArrow=classic;html=1;rounded=0;" edge="1" parent="1">
          <mxGeometry width="50" height="50" relative="1" as="geometry">
            <mxPoint x="880" y="2000" as="sourcePoint" />
            <mxPoint x="960" y="2000" as="targetPoint" />
          </mxGeometry>
        </mxCell>
        <mxCell id="Re_YdN9vPwHUGO7l-YeB-92" value="" style="endArrow=classic;html=1;rounded=0;" edge="1" parent="1">
          <mxGeometry width="50" height="50" relative="1" as="geometry">
            <mxPoint x="880" y="2039.5" as="sourcePoint" />
            <mxPoint x="960" y="2039.5" as="targetPoint" />
          </mxGeometry>
        </mxCell>
        <mxCell id="Re_YdN9vPwHUGO7l-YeB-93" value="" style="endArrow=classic;html=1;rounded=0;" edge="1" parent="1">
          <mxGeometry width="50" height="50" relative="1" as="geometry">
            <mxPoint x="280" y="2078" as="sourcePoint" />
            <mxPoint x="360" y="2078" as="targetPoint" />
          </mxGeometry>
        </mxCell>
        <mxCell id="Re_YdN9vPwHUGO7l-YeB-94" value="" style="endArrow=classic;html=1;rounded=0;" edge="1" parent="1">
          <mxGeometry width="50" height="50" relative="1" as="geometry">
            <mxPoint x="280" y="2118" as="sourcePoint" />
            <mxPoint x="360" y="2118" as="targetPoint" />
          </mxGeometry>
        </mxCell>
        <mxCell id="Re_YdN9vPwHUGO7l-YeB-95" value="" style="endArrow=classic;html=1;rounded=0;" edge="1" parent="1">
          <mxGeometry width="50" height="50" relative="1" as="geometry">
            <mxPoint x="280" y="2158" as="sourcePoint" />
            <mxPoint x="360" y="2158" as="targetPoint" />
          </mxGeometry>
        </mxCell>
        <mxCell id="Re_YdN9vPwHUGO7l-YeB-96" value="" style="endArrow=classic;html=1;rounded=0;" edge="1" parent="1">
          <mxGeometry width="50" height="50" relative="1" as="geometry">
            <mxPoint x="280" y="2198" as="sourcePoint" />
            <mxPoint x="360" y="2198" as="targetPoint" />
          </mxGeometry>
        </mxCell>
        <mxCell id="Re_YdN9vPwHUGO7l-YeB-97" value="" style="endArrow=classic;html=1;rounded=0;" edge="1" parent="1">
          <mxGeometry width="50" height="50" relative="1" as="geometry">
            <mxPoint x="880" y="2078" as="sourcePoint" />
            <mxPoint x="960" y="2078" as="targetPoint" />
          </mxGeometry>
        </mxCell>
        <mxCell id="Re_YdN9vPwHUGO7l-YeB-98" value="" style="endArrow=classic;html=1;rounded=0;" edge="1" parent="1">
          <mxGeometry width="50" height="50" relative="1" as="geometry">
            <mxPoint x="880" y="2118" as="sourcePoint" />
            <mxPoint x="960" y="2118" as="targetPoint" />
          </mxGeometry>
        </mxCell>
        <mxCell id="Re_YdN9vPwHUGO7l-YeB-99" value="" style="endArrow=classic;html=1;rounded=0;" edge="1" parent="1">
          <mxGeometry width="50" height="50" relative="1" as="geometry">
            <mxPoint x="280" y="2238" as="sourcePoint" />
            <mxPoint x="360" y="2238" as="targetPoint" />
          </mxGeometry>
        </mxCell>
        <mxCell id="Re_YdN9vPwHUGO7l-YeB-100" value="" style="endArrow=classic;html=1;rounded=0;" edge="1" parent="1">
          <mxGeometry width="50" height="50" relative="1" as="geometry">
            <mxPoint x="280" y="2278" as="sourcePoint" />
            <mxPoint x="360" y="2278" as="targetPoint" />
          </mxGeometry>
        </mxCell>
        <mxCell id="Re_YdN9vPwHUGO7l-YeB-101" value="" style="endArrow=classic;html=1;rounded=0;" edge="1" parent="1">
          <mxGeometry width="50" height="50" relative="1" as="geometry">
            <mxPoint x="280" y="2318" as="sourcePoint" />
            <mxPoint x="360" y="2318" as="targetPoint" />
          </mxGeometry>
        </mxCell>
        <mxCell id="Re_YdN9vPwHUGO7l-YeB-102" value="&lt;span style=&quot;font-size: 18px;&quot;&gt;dbg_halt_r&lt;/span&gt;" style="text;html=1;align=left;verticalAlign=middle;whiteSpace=wrap;rounded=0;" vertex="1" parent="1">
          <mxGeometry x="360" y="2058" width="200" height="40" as="geometry" />
        </mxCell>
        <mxCell id="Re_YdN9vPwHUGO7l-YeB-103" value="&lt;span style=&quot;font-size: 18px;&quot;&gt;a&lt;/span&gt;" style="text;html=1;align=right;verticalAlign=middle;whiteSpace=wrap;rounded=0;" vertex="1" parent="1">
          <mxGeometry x="680" y="2058" width="200" height="40" as="geometry" />
        </mxCell>
        <mxCell id="Re_YdN9vPwHUGO7l-YeB-104" value="&lt;span style=&quot;font-size: 18px;&quot;&gt;dbg_step_r&lt;/span&gt;" style="text;html=1;align=left;verticalAlign=middle;whiteSpace=wrap;rounded=0;" vertex="1" parent="1">
          <mxGeometry x="360" y="2098" width="200" height="40" as="geometry" />
        </mxCell>
        <mxCell id="Re_YdN9vPwHUGO7l-YeB-105" value="&lt;span style=&quot;font-size: 18px;&quot;&gt;a&lt;/span&gt;" style="text;html=1;align=right;verticalAlign=middle;whiteSpace=wrap;rounded=0;" vertex="1" parent="1">
          <mxGeometry x="680" y="2098" width="200" height="40" as="geometry" />
        </mxCell>
        <mxCell id="Re_YdN9vPwHUGO7l-YeB-106" value="&lt;span style=&quot;font-size: 18px;&quot;&gt;dbg_ebreakm_r&lt;/span&gt;" style="text;html=1;align=left;verticalAlign=middle;whiteSpace=wrap;rounded=0;" vertex="1" parent="1">
          <mxGeometry x="360" y="2138" width="200" height="40" as="geometry" />
        </mxCell>
        <mxCell id="Re_YdN9vPwHUGO7l-YeB-107" value="&lt;span style=&quot;font-size: 18px;&quot;&gt;a&lt;/span&gt;" style="text;html=1;align=right;verticalAlign=middle;whiteSpace=wrap;rounded=0;" vertex="1" parent="1">
          <mxGeometry x="680" y="2138" width="200" height="40" as="geometry" />
        </mxCell>
        <mxCell id="Re_YdN9vPwHUGO7l-YeB-108" value="&lt;span style=&quot;font-size: 18px;&quot;&gt;oitf_empty&lt;/span&gt;" style="text;html=1;align=left;verticalAlign=middle;whiteSpace=wrap;rounded=0;" vertex="1" parent="1">
          <mxGeometry x="360" y="2178" width="200" height="40" as="geometry" />
        </mxCell>
        <mxCell id="Re_YdN9vPwHUGO7l-YeB-109" value="&lt;span style=&quot;font-size: 18px;&quot;&gt;a&lt;/span&gt;" style="text;html=1;align=right;verticalAlign=middle;whiteSpace=wrap;rounded=0;" vertex="1" parent="1">
          <mxGeometry x="680" y="2178" width="200" height="40" as="geometry" />
        </mxCell>
        <mxCell id="Re_YdN9vPwHUGO7l-YeB-110" value="&lt;span style=&quot;font-size: 18px;&quot;&gt;u_mode&lt;/span&gt;" style="text;html=1;align=left;verticalAlign=middle;whiteSpace=wrap;rounded=0;" vertex="1" parent="1">
          <mxGeometry x="360" y="2218" width="200" height="40" as="geometry" />
        </mxCell>
        <mxCell id="Re_YdN9vPwHUGO7l-YeB-111" value="&lt;span style=&quot;font-size: 18px;&quot;&gt;a&lt;/span&gt;" style="text;html=1;align=right;verticalAlign=middle;whiteSpace=wrap;rounded=0;" vertex="1" parent="1">
          <mxGeometry x="680" y="2218" width="200" height="40" as="geometry" />
        </mxCell>
        <mxCell id="Re_YdN9vPwHUGO7l-YeB-112" value="&lt;span style=&quot;font-size: 18px;&quot;&gt;s_mode&lt;/span&gt;" style="text;html=1;align=left;verticalAlign=middle;whiteSpace=wrap;rounded=0;" vertex="1" parent="1">
          <mxGeometry x="360" y="2258" width="200" height="40" as="geometry" />
        </mxCell>
        <mxCell id="Re_YdN9vPwHUGO7l-YeB-113" value="&lt;span style=&quot;font-size: 18px;&quot;&gt;a&lt;/span&gt;" style="text;html=1;align=right;verticalAlign=middle;whiteSpace=wrap;rounded=0;" vertex="1" parent="1">
          <mxGeometry x="680" y="2258" width="200" height="40" as="geometry" />
        </mxCell>
        <mxCell id="Re_YdN9vPwHUGO7l-YeB-114" value="&lt;span style=&quot;font-size: 18px;&quot;&gt;h_mode&lt;/span&gt;" style="text;html=1;align=left;verticalAlign=middle;whiteSpace=wrap;rounded=0;" vertex="1" parent="1">
          <mxGeometry x="360" y="2298" width="200" height="40" as="geometry" />
        </mxCell>
        <mxCell id="Re_YdN9vPwHUGO7l-YeB-115" value="&lt;span style=&quot;font-size: 18px;&quot;&gt;a&lt;/span&gt;" style="text;html=1;align=right;verticalAlign=middle;whiteSpace=wrap;rounded=0;" vertex="1" parent="1">
          <mxGeometry x="680" y="2298" width="200" height="40" as="geometry" />
        </mxCell>
        <mxCell id="Re_YdN9vPwHUGO7l-YeB-116" value="" style="endArrow=classic;html=1;rounded=0;" edge="1" parent="1">
          <mxGeometry width="50" height="50" relative="1" as="geometry">
            <mxPoint x="880" y="2158" as="sourcePoint" />
            <mxPoint x="960" y="2158" as="targetPoint" />
          </mxGeometry>
        </mxCell>
        <mxCell id="Re_YdN9vPwHUGO7l-YeB-117" value="" style="endArrow=classic;html=1;rounded=0;" edge="1" parent="1">
          <mxGeometry width="50" height="50" relative="1" as="geometry">
            <mxPoint x="880" y="2198" as="sourcePoint" />
            <mxPoint x="960" y="2198" as="targetPoint" />
          </mxGeometry>
        </mxCell>
        <mxCell id="Re_YdN9vPwHUGO7l-YeB-118" value="" style="endArrow=classic;html=1;rounded=0;" edge="1" parent="1">
          <mxGeometry width="50" height="50" relative="1" as="geometry">
            <mxPoint x="880" y="2238" as="sourcePoint" />
            <mxPoint x="960" y="2238" as="targetPoint" />
          </mxGeometry>
        </mxCell>
        <mxCell id="Re_YdN9vPwHUGO7l-YeB-119" value="" style="endArrow=classic;html=1;rounded=0;" edge="1" parent="1">
          <mxGeometry width="50" height="50" relative="1" as="geometry">
            <mxPoint x="880" y="2278" as="sourcePoint" />
            <mxPoint x="960" y="2278" as="targetPoint" />
          </mxGeometry>
        </mxCell>
        <mxCell id="Re_YdN9vPwHUGO7l-YeB-120" value="" style="endArrow=classic;html=1;rounded=0;" edge="1" parent="1">
          <mxGeometry width="50" height="50" relative="1" as="geometry">
            <mxPoint x="880" y="2317.5" as="sourcePoint" />
            <mxPoint x="960" y="2317.5" as="targetPoint" />
          </mxGeometry>
        </mxCell>
        <mxCell id="Re_YdN9vPwHUGO7l-YeB-121" value="" style="endArrow=classic;html=1;rounded=0;" edge="1" parent="1">
          <mxGeometry width="50" height="50" relative="1" as="geometry">
            <mxPoint x="280" y="2358" as="sourcePoint" />
            <mxPoint x="360" y="2358" as="targetPoint" />
          </mxGeometry>
        </mxCell>
        <mxCell id="Re_YdN9vPwHUGO7l-YeB-122" value="&lt;span style=&quot;font-size: 18px;&quot;&gt;m_mode&lt;/span&gt;" style="text;html=1;align=left;verticalAlign=middle;whiteSpace=wrap;rounded=0;" vertex="1" parent="1">
          <mxGeometry x="360" y="2338" width="200" height="40" as="geometry" />
        </mxCell>
        <mxCell id="Re_YdN9vPwHUGO7l-YeB-123" value="&lt;span style=&quot;font-size: 18px;&quot;&gt;a&lt;/span&gt;" style="text;html=1;align=right;verticalAlign=middle;whiteSpace=wrap;rounded=0;" vertex="1" parent="1">
          <mxGeometry x="680" y="2338" width="200" height="40" as="geometry" />
        </mxCell>
        <mxCell id="Re_YdN9vPwHUGO7l-YeB-124" value="" style="endArrow=classic;html=1;rounded=0;" edge="1" parent="1">
          <mxGeometry width="50" height="50" relative="1" as="geometry">
            <mxPoint x="880" y="2357.5" as="sourcePoint" />
            <mxPoint x="960" y="2357.5" as="targetPoint" />
          </mxGeometry>
        </mxCell>
        <mxCell id="Re_YdN9vPwHUGO7l-YeB-125" value="" style="endArrow=classic;html=1;rounded=0;" edge="1" parent="1">
          <mxGeometry width="50" height="50" relative="1" as="geometry">
            <mxPoint x="280" y="2398" as="sourcePoint" />
            <mxPoint x="360" y="2398" as="targetPoint" />
          </mxGeometry>
        </mxCell>
        <mxCell id="Re_YdN9vPwHUGO7l-YeB-126" value="&lt;span style=&quot;font-size: 18px;&quot;&gt;longp_excp_i_valid&lt;/span&gt;" style="text;html=1;align=left;verticalAlign=middle;whiteSpace=wrap;rounded=0;" vertex="1" parent="1">
          <mxGeometry x="360" y="2378" width="200" height="40" as="geometry" />
        </mxCell>
        <mxCell id="Re_YdN9vPwHUGO7l-YeB-127" value="&lt;span style=&quot;font-size: 18px;&quot;&gt;a&lt;/span&gt;" style="text;html=1;align=right;verticalAlign=middle;whiteSpace=wrap;rounded=0;" vertex="1" parent="1">
          <mxGeometry x="680" y="2378" width="200" height="40" as="geometry" />
        </mxCell>
        <mxCell id="Re_YdN9vPwHUGO7l-YeB-128" value="" style="endArrow=classic;html=1;rounded=0;" edge="1" parent="1">
          <mxGeometry width="50" height="50" relative="1" as="geometry">
            <mxPoint x="880" y="2397.5" as="sourcePoint" />
            <mxPoint x="960" y="2397.5" as="targetPoint" />
          </mxGeometry>
        </mxCell>
        <mxCell id="Re_YdN9vPwHUGO7l-YeB-129" value="" style="endArrow=classic;html=1;rounded=0;" edge="1" parent="1">
          <mxGeometry width="50" height="50" relative="1" as="geometry">
            <mxPoint x="280" y="2438" as="sourcePoint" />
            <mxPoint x="360" y="2438" as="targetPoint" />
          </mxGeometry>
        </mxCell>
        <mxCell id="Re_YdN9vPwHUGO7l-YeB-130" value="&lt;span style=&quot;font-size: 18px;&quot;&gt;longp_excp_i_ld&lt;/span&gt;" style="text;html=1;align=left;verticalAlign=middle;whiteSpace=wrap;rounded=0;" vertex="1" parent="1">
          <mxGeometry x="360" y="2418" width="200" height="40" as="geometry" />
        </mxCell>
        <mxCell id="Re_YdN9vPwHUGO7l-YeB-131" value="&lt;span style=&quot;font-size: 18px;&quot;&gt;a&lt;/span&gt;" style="text;html=1;align=right;verticalAlign=middle;whiteSpace=wrap;rounded=0;" vertex="1" parent="1">
          <mxGeometry x="680" y="2418" width="200" height="40" as="geometry" />
        </mxCell>
        <mxCell id="Re_YdN9vPwHUGO7l-YeB-132" value="" style="endArrow=classic;html=1;rounded=0;" edge="1" parent="1">
          <mxGeometry width="50" height="50" relative="1" as="geometry">
            <mxPoint x="880" y="2437.5" as="sourcePoint" />
            <mxPoint x="960" y="2437.5" as="targetPoint" />
          </mxGeometry>
        </mxCell>
        <mxCell id="Re_YdN9vPwHUGO7l-YeB-133" value="" style="endArrow=classic;html=1;rounded=0;" edge="1" parent="1">
          <mxGeometry width="50" height="50" relative="1" as="geometry">
            <mxPoint x="280" y="2478" as="sourcePoint" />
            <mxPoint x="360" y="2478" as="targetPoint" />
          </mxGeometry>
        </mxCell>
        <mxCell id="Re_YdN9vPwHUGO7l-YeB-134" value="&lt;span style=&quot;font-size: 18px;&quot;&gt;longp_excp_i_st&lt;/span&gt;" style="text;html=1;align=left;verticalAlign=middle;whiteSpace=wrap;rounded=0;" vertex="1" parent="1">
          <mxGeometry x="360" y="2458" width="200" height="40" as="geometry" />
        </mxCell>
        <mxCell id="Re_YdN9vPwHUGO7l-YeB-135" value="&lt;span style=&quot;font-size: 18px;&quot;&gt;a&lt;/span&gt;" style="text;html=1;align=right;verticalAlign=middle;whiteSpace=wrap;rounded=0;" vertex="1" parent="1">
          <mxGeometry x="680" y="2458" width="200" height="40" as="geometry" />
        </mxCell>
        <mxCell id="Re_YdN9vPwHUGO7l-YeB-136" value="" style="endArrow=classic;html=1;rounded=0;" edge="1" parent="1">
          <mxGeometry width="50" height="50" relative="1" as="geometry">
            <mxPoint x="880" y="2477.5" as="sourcePoint" />
            <mxPoint x="960" y="2477.5" as="targetPoint" />
          </mxGeometry>
        </mxCell>
        <mxCell id="Re_YdN9vPwHUGO7l-YeB-137" value="" style="endArrow=classic;html=1;rounded=0;" edge="1" parent="1">
          <mxGeometry width="50" height="50" relative="1" as="geometry">
            <mxPoint x="280" y="2518" as="sourcePoint" />
            <mxPoint x="360" y="2518" as="targetPoint" />
          </mxGeometry>
        </mxCell>
        <mxCell id="Re_YdN9vPwHUGO7l-YeB-138" value="&lt;span style=&quot;font-size: 18px;&quot;&gt;longp_excp_i_buserr&lt;/span&gt;" style="text;html=1;align=left;verticalAlign=middle;whiteSpace=wrap;rounded=0;" vertex="1" parent="1">
          <mxGeometry x="360" y="2498" width="200" height="40" as="geometry" />
        </mxCell>
        <mxCell id="Re_YdN9vPwHUGO7l-YeB-139" value="&lt;span style=&quot;font-size: 18px;&quot;&gt;a&lt;/span&gt;" style="text;html=1;align=right;verticalAlign=middle;whiteSpace=wrap;rounded=0;" vertex="1" parent="1">
          <mxGeometry x="680" y="2498" width="200" height="40" as="geometry" />
        </mxCell>
        <mxCell id="Re_YdN9vPwHUGO7l-YeB-140" value="" style="endArrow=classic;html=1;rounded=0;" edge="1" parent="1">
          <mxGeometry width="50" height="50" relative="1" as="geometry">
            <mxPoint x="880" y="2517.5" as="sourcePoint" />
            <mxPoint x="960" y="2517.5" as="targetPoint" />
          </mxGeometry>
        </mxCell>
        <mxCell id="Re_YdN9vPwHUGO7l-YeB-141" value="" style="endArrow=classic;html=1;rounded=0;" edge="1" parent="1">
          <mxGeometry width="50" height="50" relative="1" as="geometry">
            <mxPoint x="280" y="2558" as="sourcePoint" />
            <mxPoint x="360" y="2558" as="targetPoint" />
          </mxGeometry>
        </mxCell>
        <mxCell id="Re_YdN9vPwHUGO7l-YeB-142" value="&lt;span style=&quot;font-size: 18px;&quot;&gt;longp_excp_i_badaddr&lt;/span&gt;" style="text;html=1;align=left;verticalAlign=middle;whiteSpace=wrap;rounded=0;" vertex="1" parent="1">
          <mxGeometry x="360" y="2538" width="200" height="40" as="geometry" />
        </mxCell>
        <mxCell id="Re_YdN9vPwHUGO7l-YeB-143" value="&lt;span style=&quot;font-size: 18px;&quot;&gt;a&lt;/span&gt;" style="text;html=1;align=right;verticalAlign=middle;whiteSpace=wrap;rounded=0;" vertex="1" parent="1">
          <mxGeometry x="680" y="2538" width="200" height="40" as="geometry" />
        </mxCell>
        <mxCell id="Re_YdN9vPwHUGO7l-YeB-144" value="" style="endArrow=classic;html=1;rounded=0;" edge="1" parent="1">
          <mxGeometry width="50" height="50" relative="1" as="geometry">
            <mxPoint x="880" y="2557.5" as="sourcePoint" />
            <mxPoint x="960" y="2557.5" as="targetPoint" />
          </mxGeometry>
        </mxCell>
        <mxCell id="Re_YdN9vPwHUGO7l-YeB-145" value="" style="endArrow=classic;html=1;rounded=0;" edge="1" parent="1">
          <mxGeometry width="50" height="50" relative="1" as="geometry">
            <mxPoint x="280" y="2598" as="sourcePoint" />
            <mxPoint x="360" y="2598" as="targetPoint" />
          </mxGeometry>
        </mxCell>
        <mxCell id="Re_YdN9vPwHUGO7l-YeB-146" value="&lt;span style=&quot;font-size: 18px;&quot;&gt;longp_excp_i_insterr&lt;/span&gt;" style="text;html=1;align=left;verticalAlign=middle;whiteSpace=wrap;rounded=0;" vertex="1" parent="1">
          <mxGeometry x="360" y="2578" width="200" height="40" as="geometry" />
        </mxCell>
        <mxCell id="Re_YdN9vPwHUGO7l-YeB-147" value="&lt;span style=&quot;font-size: 18px;&quot;&gt;a&lt;/span&gt;" style="text;html=1;align=right;verticalAlign=middle;whiteSpace=wrap;rounded=0;" vertex="1" parent="1">
          <mxGeometry x="680" y="2578" width="200" height="40" as="geometry" />
        </mxCell>
        <mxCell id="Re_YdN9vPwHUGO7l-YeB-148" value="" style="endArrow=classic;html=1;rounded=0;" edge="1" parent="1">
          <mxGeometry width="50" height="50" relative="1" as="geometry">
            <mxPoint x="880" y="2597.5" as="sourcePoint" />
            <mxPoint x="960" y="2597.5" as="targetPoint" />
          </mxGeometry>
        </mxCell>
        <mxCell id="Re_YdN9vPwHUGO7l-YeB-149" value="" style="endArrow=classic;html=1;rounded=0;" edge="1" parent="1">
          <mxGeometry width="50" height="50" relative="1" as="geometry">
            <mxPoint x="280" y="2638" as="sourcePoint" />
            <mxPoint x="360" y="2638" as="targetPoint" />
          </mxGeometry>
        </mxCell>
        <mxCell id="Re_YdN9vPwHUGO7l-YeB-150" value="&lt;span style=&quot;font-size: 18px;&quot;&gt;longp_excp_i_pc&lt;/span&gt;" style="text;html=1;align=left;verticalAlign=middle;whiteSpace=wrap;rounded=0;" vertex="1" parent="1">
          <mxGeometry x="360" y="2618" width="200" height="40" as="geometry" />
        </mxCell>
        <mxCell id="Re_YdN9vPwHUGO7l-YeB-151" value="&lt;span style=&quot;font-size: 18px;&quot;&gt;a&lt;/span&gt;" style="text;html=1;align=right;verticalAlign=middle;whiteSpace=wrap;rounded=0;" vertex="1" parent="1">
          <mxGeometry x="680" y="2618" width="200" height="40" as="geometry" />
        </mxCell>
        <mxCell id="Re_YdN9vPwHUGO7l-YeB-152" value="" style="endArrow=classic;html=1;rounded=0;" edge="1" parent="1">
          <mxGeometry width="50" height="50" relative="1" as="geometry">
            <mxPoint x="880" y="2637.5" as="sourcePoint" />
            <mxPoint x="960" y="2637.5" as="targetPoint" />
          </mxGeometry>
        </mxCell>
        <mxCell id="Re_YdN9vPwHUGO7l-YeB-153" value="" style="endArrow=classic;html=1;rounded=0;" edge="1" parent="1">
          <mxGeometry width="50" height="50" relative="1" as="geometry">
            <mxPoint x="280" y="2678" as="sourcePoint" />
            <mxPoint x="360" y="2678" as="targetPoint" />
          </mxGeometry>
        </mxCell>
        <mxCell id="Re_YdN9vPwHUGO7l-YeB-154" value="&lt;span style=&quot;font-size: 18px;&quot;&gt;pipe_flush_ack&lt;/span&gt;" style="text;html=1;align=left;verticalAlign=middle;whiteSpace=wrap;rounded=0;" vertex="1" parent="1">
          <mxGeometry x="360" y="2658" width="200" height="40" as="geometry" />
        </mxCell>
        <mxCell id="Re_YdN9vPwHUGO7l-YeB-155" value="&lt;span style=&quot;font-size: 18px;&quot;&gt;a&lt;/span&gt;" style="text;html=1;align=right;verticalAlign=middle;whiteSpace=wrap;rounded=0;" vertex="1" parent="1">
          <mxGeometry x="680" y="2658" width="200" height="40" as="geometry" />
        </mxCell>
        <mxCell id="Re_YdN9vPwHUGO7l-YeB-156" value="" style="endArrow=classic;html=1;rounded=0;" edge="1" parent="1">
          <mxGeometry width="50" height="50" relative="1" as="geometry">
            <mxPoint x="880" y="2677.5" as="sourcePoint" />
            <mxPoint x="960" y="2677.5" as="targetPoint" />
          </mxGeometry>
        </mxCell>
        <mxCell id="Re_YdN9vPwHUGO7l-YeB-157" value="" style="endArrow=classic;html=1;rounded=0;" edge="1" parent="1">
          <mxGeometry width="50" height="50" relative="1" as="geometry">
            <mxPoint x="280" y="2718" as="sourcePoint" />
            <mxPoint x="360" y="2718" as="targetPoint" />
          </mxGeometry>
        </mxCell>
        <mxCell id="Re_YdN9vPwHUGO7l-YeB-158" value="&lt;span style=&quot;font-size: 18px;&quot;&gt;clk&lt;/span&gt;" style="text;html=1;align=left;verticalAlign=middle;whiteSpace=wrap;rounded=0;" vertex="1" parent="1">
          <mxGeometry x="360" y="2698" width="200" height="40" as="geometry" />
        </mxCell>
        <mxCell id="Re_YdN9vPwHUGO7l-YeB-159" value="&lt;span style=&quot;font-size: 18px;&quot;&gt;a&lt;/span&gt;" style="text;html=1;align=right;verticalAlign=middle;whiteSpace=wrap;rounded=0;" vertex="1" parent="1">
          <mxGeometry x="680" y="2698" width="200" height="40" as="geometry" />
        </mxCell>
        <mxCell id="Re_YdN9vPwHUGO7l-YeB-160" value="" style="endArrow=classic;html=1;rounded=0;" edge="1" parent="1">
          <mxGeometry width="50" height="50" relative="1" as="geometry">
            <mxPoint x="880" y="2717.5" as="sourcePoint" />
            <mxPoint x="960" y="2717.5" as="targetPoint" />
          </mxGeometry>
        </mxCell>
        <mxCell id="Re_YdN9vPwHUGO7l-YeB-161" value="" style="endArrow=classic;html=1;rounded=0;" edge="1" parent="1">
          <mxGeometry width="50" height="50" relative="1" as="geometry">
            <mxPoint x="280" y="2758" as="sourcePoint" />
            <mxPoint x="360" y="2758" as="targetPoint" />
          </mxGeometry>
        </mxCell>
        <mxCell id="Re_YdN9vPwHUGO7l-YeB-162" value="&lt;span style=&quot;font-size: 18px;&quot;&gt;rst_n&lt;/span&gt;" style="text;html=1;align=left;verticalAlign=middle;whiteSpace=wrap;rounded=0;" vertex="1" parent="1">
          <mxGeometry x="360" y="2738" width="200" height="40" as="geometry" />
        </mxCell>
        <mxCell id="Re_YdN9vPwHUGO7l-YeB-163" value="&lt;span style=&quot;font-size: 18px;&quot;&gt;a&lt;/span&gt;" style="text;html=1;align=right;verticalAlign=middle;whiteSpace=wrap;rounded=0;" vertex="1" parent="1">
          <mxGeometry x="680" y="2738" width="200" height="40" as="geometry" />
        </mxCell>
        <mxCell id="Re_YdN9vPwHUGO7l-YeB-164" value="" style="endArrow=classic;html=1;rounded=0;" edge="1" parent="1">
          <mxGeometry width="50" height="50" relative="1" as="geometry">
            <mxPoint x="880" y="2757.5" as="sourcePoint" />
            <mxPoint x="960" y="2757.5" as="targetPoint" />
          </mxGeometry>
        </mxCell>
        <mxCell id="Re_YdN9vPwHUGO7l-YeB-173" value="u_e203_exu_branchslv" style="rounded=0;whiteSpace=wrap;html=1;fontSize=18;" vertex="1" parent="1">
          <mxGeometry x="500" y="570" width="220" height="130" as="geometry" />
        </mxCell>
        <mxCell id="Re_YdN9vPwHUGO7l-YeB-175" value="u_e203_exu_excp" style="rounded=0;whiteSpace=wrap;html=1;fontSize=18;" vertex="1" parent="1">
          <mxGeometry x="500" y="770" width="220" height="130" as="geometry" />
        </mxCell>
      </root>
    </mxGraphModel>
  </diagram>
</mxfile>
